<?xml version="1.0" encoding="UTF-8" standalone="no"?>
<!-- Created with Inkscape (http://www.inkscape.org/) -->

<svg
   version="1.1"
   id="svg3918"
   xml:space="preserve"
   width="682.66669"
   height="682.66669"
   viewBox="0 0 682.66669 682.66669"
   xmlns="http://www.w3.org/2000/svg"
   xmlns:svg="http://www.w3.org/2000/svg"><defs
     id="defs3922"><clipPath
       clipPathUnits="userSpaceOnUse"
       id="clipPath3932"><path
         d="M 0,512 H 512 V 0 H 0 Z"
         id="path3930" /></clipPath></defs><g
     id="g3924"
     transform="matrix(1.3333333,0,0,-1.3333333,0,682.66667)"><g
       id="g3926"><g
         id="g3928"
         clip-path="url(#clipPath3932)"><g
           id="g3934"
           transform="translate(218.293,205.4014)"><path
             d="m 0,0 5.23,-8.634 c 7.798,-12.872 11.992,-28.314 11.992,-44.154 0,-9.676 -1.566,-19.263 -4.613,-28.242 L 5.64,-101.568 h 64.134 l -6.969,20.538 c -3.047,8.979 -4.613,18.566 -4.613,28.242 0,15.84 4.194,31.282 11.992,44.154 l 5.228,8.631"
             style="fill:none;stroke:#000000;stroke-width:15;stroke-linecap:round;stroke-linejoin:round;stroke-miterlimit:10;stroke-dasharray:none;stroke-opacity:1"
             id="path3936" /></g><g
           id="g3938"
           transform="translate(124.5562,403.2578)"><path
             d="m 0,0 h -47.274 c -4.091,0 -7.285,-3.516 -6.905,-7.589 1.175,-12.596 3.987,-28.989 10.417,-45.978 10.796,-28.526 28.461,-50.675 52.764,-66.26"
             style="fill:none;stroke:#000000;stroke-width:15;stroke-linecap:round;stroke-linejoin:round;stroke-miterlimit:10;stroke-dasharray:none;stroke-opacity:1"
             id="path3940" /></g><g
           id="g3942"
           transform="translate(173.2544,229.209)"><path
             d="m 0,0 c -77.461,19.488 -111.112,69.988 -125.713,109.48 -15.973,43.201 -12.741,81.994 -12.596,83.624 0.805,9.026 8.369,15.945 17.431,15.945 h 72.18"
             style="fill:none;stroke:#000000;stroke-width:15;stroke-linecap:round;stroke-linejoin:round;stroke-miterlimit:10;stroke-dasharray:none;stroke-opacity:1"
             id="path3944" /></g><g
           id="g3946"
           transform="translate(387.4438,403.2578)"><path
             d="m 0,0 h 47.274 c 4.091,0 7.285,-3.516 6.905,-7.589 -0.663,-7.101 -1.845,-15.409 -3.903,-24.351"
             style="fill:none;stroke:#000000;stroke-width:15;stroke-linecap:round;stroke-linejoin:round;stroke-miterlimit:10;stroke-dasharray:none;stroke-opacity:1"
             id="path3948" /></g><g
           id="g3950"
           transform="translate(338.7437,229.209)"><path
             d="m 0,0 c 77.462,19.487 111.114,69.988 125.715,109.48 15.973,43.201 12.741,81.994 12.596,83.624 -0.805,9.026 -8.369,15.945 -17.431,15.945 H 48.7"
             style="fill:none;stroke:#000000;stroke-width:15;stroke-linecap:round;stroke-linejoin:round;stroke-miterlimit:10;stroke-dasharray:none;stroke-opacity:1"
             id="path3952" /></g><g
           id="g3954"
           transform="translate(426.3716,338.3027)"><path
             d="M 0,0 C -10.715,-22.625 -26.312,-40.678 -46.655,-54.044"
             style="fill:none;stroke:#000000;stroke-width:15;stroke-linecap:round;stroke-linejoin:round;stroke-miterlimit:10;stroke-dasharray:none;stroke-opacity:1"
             id="path3956" /></g><g
           id="g3958"
           transform="translate(205.8335,504.5098)"><path
             d="m 0,0 h 190.37 c 5.108,0 9.249,-4.142 9.249,-9.249 v -23.222 c 0,-5.107 -4.141,-9.249 -9.249,-9.249 H -90.037 c -5.108,0 -9.249,4.142 -9.249,9.249 v 23.222 c 0,5.107 4.141,9.249 9.249,9.249 h 54.871"
             style="fill:none;stroke:#000000;stroke-width:15;stroke-linecap:round;stroke-linejoin:round;stroke-miterlimit:10;stroke-dasharray:none;stroke-opacity:1"
             id="path3960" /></g><g
           id="g3962"
           transform="translate(256,199.9023)"><path
             d="M 0,0 V 0 C -72.594,0 -131.444,58.85 -131.444,131.444 V 262.888 H 131.444 V 131.444 C 131.444,58.85 72.594,0 0,0 Z"
             style="fill:none;stroke:#000000;stroke-width:15;stroke-linecap:round;stroke-linejoin:round;stroke-miterlimit:10;stroke-dasharray:none;stroke-opacity:1"
             id="path3964" /></g><g
           id="g3966"
           transform="translate(335.8428,55.6621)"><path
             d="m 0,0 h -159.686 v 23.211 c 0,13.785 11.175,24.96 24.96,24.96 H -24.96 C -11.175,48.171 0,36.996 0,23.211 Z"
             style="fill:none;stroke:#000000;stroke-width:15;stroke-linecap:round;stroke-linejoin:round;stroke-miterlimit:10;stroke-dasharray:none;stroke-opacity:1"
             id="path3968" /></g><g
           id="g3970"
           transform="translate(370.6387,7.4902)"><path
             d="m 0,0 h -229.277 c -3.574,0 -6.471,2.897 -6.471,6.471 v 35.23 c 0,3.573 2.897,6.471 6.471,6.471 H 0 c 3.574,0 6.47,-2.898 6.47,-6.471 V 6.471 C 6.47,2.897 3.574,0 0,0 Z"
             style="fill:none;stroke:#000000;stroke-width:15;stroke-linecap:round;stroke-linejoin:round;stroke-miterlimit:10;stroke-dasharray:none;stroke-opacity:1"
             id="path3972" /></g><g
           id="g3974"
           transform="translate(265.3037,387.2129)"><path
             d="m 0,0 9.618,-19.488 c 1.511,-3.062 4.433,-5.185 7.812,-5.676 l 21.507,-3.125 c 8.51,-1.236 11.908,-11.694 5.75,-17.696 l -15.562,-15.17 c -2.446,-2.384 -3.562,-5.818 -2.984,-9.184 l 3.673,-21.42 c 1.454,-8.474 -7.442,-14.938 -15.054,-10.936 l -19.236,10.112 c -3.022,1.59 -6.633,1.59 -9.656,0 l -19.236,-10.112 c -7.611,-4.002 -16.507,2.462 -15.054,10.936 l 3.674,21.42 c 0.577,3.366 -0.539,6.8 -2.984,9.184 l -15.562,15.17 c -6.158,6.002 -2.76,16.46 5.75,17.696 l 21.506,3.125 c 3.38,0.491 6.301,2.614 7.812,5.676 L -18.607,0 C -14.802,7.712 -3.806,7.712 0,0 Z"
             style="fill:none;stroke:#000000;stroke-width:15;stroke-linecap:round;stroke-linejoin:round;stroke-miterlimit:10;stroke-dasharray:none;stroke-opacity:1"
             id="path3976" /></g></g></g></g></svg>
