<svg id="Layer_1" enable-background="new 0 0 511.986 511.986" height="512" viewBox="0 0 511.986 511.986" width="512" xmlns="http://www.w3.org/2000/svg"><g><g><path d="m183.842 347.741-48.954-13.04c-16.017-4.167-33.721 5.673-38.904 21.264l-38.268-55.11c-10.629-15.309-32.927-18.049-46.949-5.733-12.036 10.575-14.28 28.515-5.22 41.729l48.586 70.862c8.047 11.703 19.89 20.562 33.383 24.984l37.614 15.709c22.673 9.322 23.979 25.528 24.023 26.214l-.006-.163.083-.002c.142 5.427 4.575 9.785 10.036 9.785 6.649 0 11.564-6.639 9.606-13.007-1.101-7.52-6.792-29.258-36.085-41.303l-37.943-15.846c-9.73-4.065-18.102-8.79-24.224-17.692l-48.577-70.852c-3.343-4.875-2.515-11.494 1.925-15.395 5.179-4.551 13.394-3.539 17.32 2.114l41.847 60.267c8.3 11.81 20.475 20.63 34.285 24.84.003.001.007.003.01.004l.017.005c.002 0 .003.001.005.002l34.109 10.465c12.798 3.324 18.4-14.74 5.866-19.121l-34.131-10.472c-9.019-2.839-11.967-14.642-4.915-21.183 2.021-1.464 6.592-4.174 11.462-3.012l48.939 13.035c.06.016.121.031.182.047 29.935 7.375 43.877 23.865 43.877 51.896v55.119c0 5.522 4.477 10 10 10s10-4.478 10-10c-.925-56.428 11.81-107.945-58.999-126.41z"/><path d="m501.219 295.121c-14.022-12.317-36.32-9.576-46.949 5.733l-38.267 55.111c-1.835-5.52-5.347-11.084-10.033-14.628-8.722-6.593-19.179-9.028-28.69-6.683-.061.015-.12.03-.181.046l-48.953 13.039c-18.644 4.608-33.1 12.67-42.966 23.96-10.641 12.177-16.036 28.102-16.036 47.333v55.119c0 5.522 4.478 10 10 10s10-4.478 10-10v-55.119c0-28.03 13.942-44.521 43.878-51.896.061-.016.121-.031.182-.047l48.938-13.035c4.874-1.161 9.443 1.547 11.464 3.011 6.961 6.459 4.195 18.479-4.916 21.184l-34.131 10.472c-5.279 1.62-8.246 7.214-6.627 12.494 1.597 5.205 7.283 8.225 12.494 6.627l34.131-10.472c.003-.001.005-.002.008-.003s.007-.002.01-.003c13.806-4.21 25.978-13.03 34.311-24.885l41.813-60.219c3.928-5.656 12.141-6.669 17.32-2.115 4.44 3.9 5.269 10.52 1.926 15.394l-48.57 70.841c-6.122 8.904-14.495 13.643-24.231 17.703l-37.826 15.797c-32.089 12.489-35.948 37.816-36.405 43.033-.752 5.92 3.979 11.326 9.96 11.326 5.629.01 10.221-4.674 10.037-10.309.449-3.318 3.535-17.616 23.757-25.448.081-.031.162-.064.242-.098l37.562-15.688c13.494-4.422 25.337-13.281 33.393-24.995l48.578-70.853c9.057-13.213 6.812-31.152-5.223-41.727z"/><path d="m157.326 235.672c3.828 3.982 10.158 4.105 14.14.28 3.982-3.827 4.107-10.158.28-14.14l-53.563-55.729c-.047-.049-.094-.097-.142-.145-20.37-20.351-25.817-50.433-14.215-78.508 6.314-15.285 18.816-27.636 34.297-33.884 35.604-14.354 65.178-.157 80.982 17.918 3.914 4.477 11.147 4.474 15.06-.003 14.958-17.123 36.58-25.635 59.32-23.349 30.7 3.083 55.505 26.377 60.91 56.32-11.245 1.958-21.932 6.901-30.718 14.189-15.693-13.075-36.901-17.82-56.776-13.508-49.844 10.802-67.591 74.611-31.761 110.526l26.075 27.127-41.905 43.519c-3.831 3.979-3.711 10.309.268 14.14 3.92 3.775 10.362 3.657 14.139-.267l41.368-42.961 41.29 42.959c3.878 4.035 10.532 4.036 14.414.006l83.092-86.3c.053-.055.104-.109.156-.166 12.637-13.738 18.846-32.333 17.035-51.016-2.933-30.273-26.526-54.584-56.483-58.615-5.758-40.167-38.417-71.768-79.105-75.854-25.657-2.569-50.208 5.532-68.861 22.429-25.568-23.049-62.128-29.292-95.982-15.64-20.437 8.248-36.948 24.575-45.3 44.795-14.734 35.656-7.649 74.047 18.491 100.219zm203.333-111.934c3.225-.355 6.522-.364 9.747-.038 36.977 3.363 54.326 49.415 28.983 76.379l-75.799 78.725-74.098-77.094c-24.999-26.041-12.794-70.596 23.344-77.444 15.959-3.018 32.587 2.606 43.295 14.867 3.911 4.477 11.145 4.48 15.058.004 7.479-8.547 18.161-14.192 29.47-15.399z"/><path d="m205.383 257.041c-2.986-4.562-9.359-5.774-13.87-2.771-10.646 7.884-.271 23.452 11.11 16.631 4.537-3.012 5.776-9.339 2.76-13.86z"/></g></g></svg>