<svg id="Layer_1" enable-background="new 0 0 100 100" viewBox="0 0 100 100" xmlns="http://www.w3.org/2000/svg"><path d="m87.8 40.4c-3.1-3.9-7.2-6.9-11.8-8.6v-1.8c0-3.3-2.7-6-6-6h-2c0-5.5-4.5-10-10-10h-16c-5.5 0-10 4.5-10 10h-2c-3.3 0-6 2.7-6 6v1.8c-4.6 1.8-8.7 4.7-11.8 8.6-8.3 10.3-8.2 25.2.3 35.4.5.7 1.1 1.3 1.7 1.9 0 0 0 .1.1.1 0 0 0 0 .1.1 5.3 5.3 12.4 8.1 19.6 8.1 5.6 0 11.1-1.7 16-5.1 4.9 3.4 10.4 5.1 16 5.1 8 0 16-3.5 21.6-10.2 8.5-10.2 8.6-25 .2-35.4zm-45.8-22.4h16c3.3 0 6 2.7 6 6h-2c-3.3 0-6 2.7-6 6v1.8c-2.1.8-4.1 1.9-6 3.2-1.9-1.3-3.9-2.4-6-3.2v-1.8c0-3.3-2.7-6-6-6h-2c0-3.3 2.7-6 6-6zm-26.7 25c3-3.7 6.9-6.4 11.3-7.8.8-.3 1.4-1 1.4-1.9v-3.3c0-1.1.9-2 2-2h8c1.1 0 2 .9 2 2v3.3c0 .9.6 1.6 1.4 1.9 1.9.6 3.7 1.5 5.4 2.5-.2.2-.4.3-.6.5-1.3 1.3-2.4 2.6-3.4 4.1-7-4-15.7-2.9-21.5 2.9-3.4 3.4-5.3 8-5.3 12.8 0 4.1 1.4 8.1 3.9 11.2l-4.3 4.3c-.1-.1-.1-.1-.2-.2-7.2-8.8-7.3-21.5-.1-30.3zm8.8 24.9c-2.6-2.7-4.1-6.2-4.1-9.9s1.5-7.3 4.1-9.9c4.5-4.5 11.3-5.4 16.7-2.3-3.7 7.7-3.7 16.7 0 24.4-5.4 3-12.2 2.2-16.7-2.3zm-5.6 8.4 4.3-4.3c3.2 2.7 7.2 4 11.2 4 3 0 6.1-.8 8.8-2.4 1 1.5 2.1 2.9 3.4 4.1.2.2.4.4.6.5-8.9 5.7-20.3 4.8-28.3-1.9zm66-3c-8.4 10.1-23 11.7-33.3 3.6-.3-.2-.5-.4-.7-.6l4.3-4.3c.2.2.4.3.6.5 3.2 2.3 6.9 3.5 10.6 3.5 4.6 0 9.2-1.8 12.7-5.3 3.4-3.4 5.3-7.9 5.3-12.7s-1.9-9.3-5.3-12.7c-6.3-6.3-16.1-7.1-23.3-1.8-.8.6-1.5 1.2-2.1 1.8-3.4 3.4-5.3 7.9-5.3 12.7 0 4.1 1.4 8.1 3.9 11.2l-4.3 4.3c-.9-1.1-1.8-2.3-2.5-3.6-4.2-7.3-4.2-16.5 0-23.8 1.1-1.9 2.4-3.6 3.9-5.1.7-.7 1.4-1.3 2.2-1.9 2.2-1.7 4.7-3 7.4-3.9.8-.3 1.4-1 1.4-1.9v-3.3c0-1.1.9-2 2-2h8c1.1 0 2 .9 2 2v3.3c0 .9.6 1.6 1.4 1.9 4.4 1.4 8.4 4.1 11.3 7.8 7.2 8.8 7.1 21.5-.2 30.3zm-28.6-25c2.7 6.2 2.7 13.3 0 19.4-2.5-2.6-3.9-6.1-3.9-9.7 0-3.7 1.4-7.1 3.9-9.7zm3.3-2.5c5.4-3 12.2-2.2 16.7 2.3 2.6 2.6 4.1 6.2 4.1 9.9s-1.5 7.3-4.1 9.9c-4.5 4.5-11.3 5.4-16.7 2.3 3.7-7.7 3.7-16.7 0-24.4z"/></svg>